<?xml version="1.0" encoding="UTF-8" standalone="no"?>
<svg
   width="150"
   height="150"
   version="1.1"
   viewBox="0 0 39.687 39.688"
   id="svg120"
   sodipodi:docname="thumbnail.svg"
   inkscape:version="1.2.1 (9c6d41e410, 2022-07-14)"
   xmlns:inkscape="http://www.inkscape.org/namespaces/inkscape"
   xmlns:sodipodi="http://sodipodi.sourceforge.net/DTD/sodipodi-0.dtd"
   xmlns="http://www.w3.org/2000/svg"
   xmlns:svg="http://www.w3.org/2000/svg"
   xmlns:rdf="http://www.w3.org/1999/02/22-rdf-syntax-ns#"
   xmlns:cc="http://creativecommons.org/ns#"
   xmlns:dc="http://purl.org/dc/elements/1.1/">
  <metadata
     id="metadata124">
    <rdf:RDF>
      <cc:Work
         rdf:about="">
        <dc:format>image/svg+xml</dc:format>
        <dc:type
           rdf:resource="http://purl.org/dc/dcmitype/StillImage" />
      </cc:Work>
    </rdf:RDF>
  </metadata>
  <sodipodi:namedview
     pagecolor="#ffffff"
     bordercolor="#666666"
     borderopacity="1"
     objecttolerance="10"
     gridtolerance="10"
     guidetolerance="10"
     inkscape:pageopacity="0"
     inkscape:pageshadow="2"
     inkscape:window-width="1368"
     inkscape:window-height="700"
     id="namedview122"
     showgrid="false"
     inkscape:snap-bbox="true"
     inkscape:bbox-nodes="true"
     inkscape:zoom="1.2067956"
     inkscape:cx="304.93979"
     inkscape:cy="127.61067"
     inkscape:window-x="0"
     inkscape:window-y="32"
     inkscape:window-maximized="1"
     inkscape:current-layer="svg120"
     inkscape:pagecheckerboard="0"
     inkscape:showpageshadow="2"
     inkscape:deskcolor="#d1d1d1">
    <inkscape:grid
       type="xygrid"
       id="grid1085" />
  </sodipodi:namedview>
  <defs
     id="defs21">
    <filter
       inkscape:collect="always"
       style="color-interpolation-filters:sRGB"
       id="filter1702"
       x="-0.075130435"
       y="-0.19200001"
       width="1.1502609"
       height="1.384">
      <feGaussianBlur
         inkscape:collect="always"
         stdDeviation="0.95251201"
         id="feGaussianBlur1704" />
    </filter>
    <clipPath
       clipPathUnits="userSpaceOnUse"
       id="clipPath2484">
      <rect
         style="fill:#e6e6e6;stroke-width:0.435626;stroke-linecap:round;stroke-linejoin:round;stroke-miterlimit:2"
         id="rect2486"
         width="26.458666"
         height="8.466773"
         x="6.0849934"
         y="6.6146665" />
    </clipPath>
  </defs>
  <g
     id="thumbnail-dark">
    <rect
       style="fill:#1a1a1a;fill-opacity:1;stroke-width:0.435626;stroke-linecap:round;stroke-linejoin:round;stroke-miterlimit:2"
       id="rect2499"
       width="26.458666"
       height="8.466773"
       x="6.0849934"
       y="20.902346" />
    <g
       id="g2509"
       clip-path="url(#clipPath2484)"
       transform="translate(0,14.28768)">
      <rect
         style="opacity:1;fill:#000000;stroke-width:0.529173;stroke-linecap:round;stroke-linejoin:round;filter:url(#filter1702)"
         id="rect2501"
         width="30.427467"
         height="11.9064"
         x="1.057846"
         y="8.2021866"
         rx="3.17504"
         ry="3.17504" />
      <rect
         style="fill:#2c2c2c;fill-opacity:1;stroke-width:0.529173;stroke-linecap:round;stroke-linejoin:round"
         id="rect2505"
         width="30.427467"
         height="11.9064"
         x="1.057846"
         y="7.6730132"
         rx="3.17504"
         ry="3.17504" />
      <path
         id="path2507"
         style="opacity:0.1;fill:#ffffff;stroke-width:2;stroke-linecap:round;stroke-linejoin:round"
         d="M 16,29 C 9.352,29 4,34.352 4,41 v 1 C 4,35.352 9.352,30 16,30 h 91 c 6.648,0 12,5.352 12,12 v -1 c 0,-6.648 -5.352,-12 -12,-12 z"
         transform="matrix(0.26458667,0,0,0.26458667,-5e-4,0)" />
    </g>
    <circle
       style="opacity:0.15;fill:#ffffff;fill-opacity:1;stroke-width:2.11669;stroke-linecap:round;stroke-linejoin:round;paint-order:stroke fill markers"
       id="circle2511"
       cx="26.561939"
       cy="25.66497"
       r="2.1166933" />
    <circle
       style="opacity:0.15;fill:#ffffff;fill-opacity:1;stroke-width:2.11669;stroke-linecap:round;stroke-linejoin:round;paint-order:stroke fill markers"
       id="circle2513"
       cx="19.311424"
       cy="25.66497"
       r="2.1166933" />
    <circle
       style="opacity:0.15;fill:#ffffff;fill-opacity:1;stroke-width:2.11669;stroke-linecap:round;stroke-linejoin:round;paint-order:stroke fill markers"
       id="circle2515"
       cx="12.060911"
       cy="25.66497"
       r="2.1166933" />
    <path
       d="m 25.626557,24.597331 c -0.0338,0 -0.0676,0.01286 -0.0935,0.03876 -0.0518,0.05182 -0.0518,0.135246 0,0.187071 l 0.841809,0.841808 -0.841809,0.841809 c -0.0518,0.05182 -0.0518,0.135247 0,0.187071 0.0518,0.05182 0.135252,0.05182 0.187074,0 l 0.841809,-0.841809 0.841808,0.841809 c 0.0518,0.05182 0.135241,0.05182 0.187074,0 0.0518,-0.05182 0.0518,-0.135246 0,-0.187071 l -0.841809,-0.841809 0.841809,-0.841808 c 0.0518,-0.05182 0.0518,-0.135247 0,-0.187071 -0.0518,-0.05182 -0.135252,-0.05182 -0.187074,0 L 26.56194,25.4779 25.720131,24.636091 c -0.0259,-0.0259 -0.0597,-0.03876 -0.0935,-0.03876 z"
       style="opacity:0.7;fill:#ffffff;stroke-width:0.264587;paint-order:stroke fill markers"
       id="path2102" />
    <path
       d="m 18.782251,24.606623 c -0.293162,0 -0.529173,0.236012 -0.529173,0.529174 v 1.058346 c 0,0.293162 0.236014,0.529174 0.529173,0.529174 h 1.058347 c 0.293162,0 0.529173,-0.236012 0.529173,-0.529174 v -1.058346 c 0,-0.293162 -0.236014,-0.529174 -0.529173,-0.529174 z m 0,0.264587 h 1.058347 c 0.146581,0 0.264587,0.118011 0.264587,0.264587 v 1.058346 c 0,0.146576 -0.118011,0.264587 -0.264587,0.264587 h -1.058347 c -0.146573,0 -0.264584,-0.118011 -0.264584,-0.264587 v -1.058346 c 0,-0.146576 0.118011,-0.264587 0.264584,-0.264587 z"
       style="opacity:0.7;fill:#ffffff;stroke-width:0.264587;paint-order:stroke fill markers"
       id="path2110" />
    <rect
       x="11.002564"
       y="25.532677"
       width="2.1166933"
       height="0.26458666"
       rx="0.13229333"
       ry="0.13229333"
       style="opacity:0.7;fill:#ffffff;stroke-width:0.264587;paint-order:stroke fill markers"
       id="rect2118" />
  </g>
  <g
     id="thumbnail">
    <rect
       style="fill:#e6e6e6;stroke-width:0.435626;stroke-linecap:round;stroke-linejoin:round;stroke-miterlimit:2"
       id="rect1083"
       width="26.458666"
       height="8.466773"
       x="6.0849934"
       y="6.6146665" />
    <g
       id="g1726"
       clip-path="url(#clipPath2484)">
      <rect
         style="opacity:0.35;fill:#000000;stroke-width:0.529173;stroke-linecap:round;stroke-linejoin:round;filter:url(#filter1702)"
         id="rect1682"
         width="30.427467"
         height="11.9064"
         x="1.057846"
         y="8.2021866"
         rx="3.17504"
         ry="3.17504" />
      <rect
         style="fill:#f2f2f2;fill-opacity:1;stroke-width:0.529173;stroke-linecap:round;stroke-linejoin:round"
         id="rect1115"
         width="30.427467"
         height="11.9064"
         x="1.057846"
         y="7.6730132"
         rx="3.17504"
         ry="3.17504" />
      <path
         id="rect2306"
         style="fill:#ffffff;stroke-width:2;stroke-linecap:round;stroke-linejoin:round"
         d="M 16,29 C 9.352,29 4,34.352 4,41 v 1 C 4,35.352 9.352,30 16,30 h 91 c 6.648,0 12,5.352 12,12 v -1 c 0,-6.648 -5.352,-12 -12,-12 z"
         transform="matrix(0.26458667,0,0,0.26458667,-5e-4,0)" />
    </g>
    <circle
       style="opacity:0.15;fill:#000000;fill-opacity:1;stroke-width:2.11669;stroke-linecap:round;stroke-linejoin:round;paint-order:stroke fill markers"
       id="path2409"
       cx="26.561939"
       cy="11.37729"
       r="2.1166933" />
    <circle
       style="opacity:0.15;fill:#000000;fill-opacity:1;stroke-width:2.11669;stroke-linecap:round;stroke-linejoin:round;paint-order:stroke fill markers"
       id="circle2551"
       cx="19.311424"
       cy="11.37729"
       r="2.1166933" />
    <circle
       style="opacity:0.15;fill:#000000;fill-opacity:1;stroke-width:2.11669;stroke-linecap:round;stroke-linejoin:round;paint-order:stroke fill markers"
       id="circle2559"
       cx="12.060911"
       cy="11.37729"
       r="2.1166933" />
    <path
       d="m 25.626557,10.30965 c -0.0338,0 -0.0676,0.01286 -0.0935,0.03876 -0.0518,0.05182 -0.0518,0.135246 0,0.187071 l 0.841809,0.841808 -0.841809,0.841809 c -0.0518,0.05182 -0.0518,0.135247 0,0.187071 0.0518,0.05182 0.135252,0.05182 0.187074,0 l 0.841809,-0.841809 0.841808,0.841809 c 0.0518,0.05182 0.135241,0.05182 0.187074,0 0.0518,-0.05182 0.0518,-0.135246 0,-0.187071 l -0.841809,-0.841809 0.841809,-0.841808 c 0.0518,-0.05182 0.0518,-0.135247 0,-0.187071 -0.0518,-0.05182 -0.135252,-0.05182 -0.187074,0 L 26.56194,11.190219 25.720131,10.34841 c -0.0259,-0.0259 -0.0597,-0.03876 -0.0935,-0.03876 z"
       style="opacity:0.65;fill:#000000;stroke-width:0.264587;paint-order:stroke fill markers"
       id="path742" />
    <path
       d="m 18.782251,10.318943 c -0.293162,0 -0.529173,0.236012 -0.529173,0.529174 v 1.058346 c 0,0.293162 0.236014,0.529174 0.529173,0.529174 h 1.058347 c 0.293162,0 0.529173,-0.236012 0.529173,-0.529174 v -1.058346 c 0,-0.293162 -0.236014,-0.529174 -0.529173,-0.529174 z m 0,0.264587 h 1.058347 c 0.146581,0 0.264587,0.118011 0.264587,0.264587 v 1.058346 c 0,0.146576 -0.118011,0.264587 -0.264587,0.264587 h -1.058347 c -0.146573,0 -0.264584,-0.118011 -0.264584,-0.264587 v -1.058346 c 0,-0.146576 0.118011,-0.264587 0.264584,-0.264587 z"
       style="opacity:0.65;fill:#000000;stroke-width:0.264587;paint-order:stroke fill markers"
       id="path744" />
    <rect
       x="11.002564"
       y="11.244996"
       width="2.1166933"
       height="0.26458666"
       rx="0.13229333"
       ry="0.13229333"
       style="opacity:0.65;fill:#000000;stroke-width:0.264587;paint-order:stroke fill markers"
       id="rect746" />
  </g>
  <g
     id="thumbnail-Dark-macos"
     transform="translate(38.629653)">
    <rect
       style="fill:#1a1a1a;fill-opacity:1;stroke-width:0.435626;stroke-linecap:round;stroke-linejoin:round;stroke-miterlimit:2"
       id="rect320"
       width="26.458666"
       height="8.466773"
       x="6.0849934"
       y="20.902346" />
    <g
       id="g328"
       clip-path="url(#clipPath2484)"
       transform="translate(0,14.28768)">
      <rect
         style="opacity:1;fill:#000000;stroke-width:0.529173;stroke-linecap:round;stroke-linejoin:round;filter:url(#filter1702)"
         id="rect322"
         width="30.427467"
         height="11.9064"
         x="1.057846"
         y="8.2021866"
         rx="3.17504"
         ry="3.17504" />
      <rect
         style="fill:#2c2c2c;fill-opacity:1;stroke-width:0.529173;stroke-linecap:round;stroke-linejoin:round"
         id="rect324"
         width="30.427467"
         height="11.9064"
         x="1.057846"
         y="7.6730132"
         rx="3.17504"
         ry="3.17504" />
      <path
         id="path326"
         style="opacity:0.1;fill:#ffffff;stroke-width:2;stroke-linecap:round;stroke-linejoin:round"
         d="M 16,29 C 9.352,29 4,34.352 4,41 v 1 C 4,35.352 9.352,30 16,30 h 91 c 6.648,0 12,5.352 12,12 v -1 c 0,-6.648 -5.352,-12 -12,-12 z"
         transform="matrix(0.26458667,0,0,0.26458667,-5e-4,0)" />
    </g>
    <circle
       style="opacity:1;fill:#fd5f51;fill-opacity:1;stroke-width:2.11669;stroke-linecap:round;stroke-linejoin:round;paint-order:stroke fill markers"
       id="circle330"
       cx="26.561939"
       cy="25.66497"
       r="2.1166933" />
    <circle
       style="opacity:1;fill:#38c76a;fill-opacity:1;stroke-width:2.11669;stroke-linecap:round;stroke-linejoin:round;paint-order:stroke fill markers"
       id="circle332"
       cx="19.311424"
       cy="25.66497"
       r="2.1166933" />
    <circle
       style="opacity:1;fill:#fdbe04;fill-opacity:1;stroke-width:2.11669;stroke-linecap:round;stroke-linejoin:round;paint-order:stroke fill markers"
       id="circle334"
       cx="12.060911"
       cy="25.66497"
       r="2.1166933" />
  </g>
  <g
     id="thumbnail-macos"
     transform="translate(38.629653)">
    <rect
       style="fill:#e6e6e6;stroke-width:0.435626;stroke-linecap:round;stroke-linejoin:round;stroke-miterlimit:2"
       id="rect344"
       width="26.458666"
       height="8.466773"
       x="6.0849934"
       y="6.6146665" />
    <g
       id="g352"
       clip-path="url(#clipPath2484)">
      <rect
         style="opacity:0.35;fill:#000000;stroke-width:0.529173;stroke-linecap:round;stroke-linejoin:round;filter:url(#filter1702)"
         id="rect346"
         width="30.427467"
         height="11.9064"
         x="1.057846"
         y="8.2021866"
         rx="3.17504"
         ry="3.17504" />
      <rect
         style="fill:#f2f2f2;fill-opacity:1;stroke-width:0.529173;stroke-linecap:round;stroke-linejoin:round"
         id="rect348"
         width="30.427467"
         height="11.9064"
         x="1.057846"
         y="7.6730132"
         rx="3.17504"
         ry="3.17504" />
      <path
         id="path350"
         style="fill:#ffffff;stroke-width:2;stroke-linecap:round;stroke-linejoin:round"
         d="M 16,29 C 9.352,29 4,34.352 4,41 v 1 C 4,35.352 9.352,30 16,30 h 91 c 6.648,0 12,5.352 12,12 v -1 c 0,-6.648 -5.352,-12 -12,-12 z"
         transform="matrix(0.26458667,0,0,0.26458667,-5e-4,0)" />
    </g>
    <circle
       style="opacity:1;fill:#fd5f51;fill-opacity:1;stroke-width:2.11669;stroke-linecap:round;stroke-linejoin:round;paint-order:stroke fill markers"
       id="circle354"
       cx="26.561939"
       cy="11.37729"
       r="2.1166933" />
    <circle
       style="opacity:1;fill:#38c76a;fill-opacity:1;stroke-width:2.11669;stroke-linecap:round;stroke-linejoin:round;paint-order:stroke fill markers"
       id="circle356"
       cx="19.311424"
       cy="11.37729"
       r="2.1166933" />
    <circle
       style="opacity:1;fill:#fdbe04;fill-opacity:1;stroke-width:2.11669;stroke-linecap:round;stroke-linejoin:round;paint-order:stroke fill markers"
       id="circle358"
       cx="12.060911"
       cy="11.37729"
       r="2.1166933" />
  </g>
</svg>
