<?xml version="1.0" encoding="UTF-8" standalone="no"?>
<svg
   width="600"
   height="200"
   version="1.1"
   viewBox="0 0 600 200"
   id="svg84"
   sodipodi:docname="assets.svg"
   inkscape:version="1.3 (0e150ed6c4, 2023-07-21)"
   xmlns:inkscape="http://www.inkscape.org/namespaces/inkscape"
   xmlns:sodipodi="http://sodipodi.sourceforge.net/DTD/sodipodi-0.dtd"
   xmlns:xlink="http://www.w3.org/1999/xlink"
   xmlns="http://www.w3.org/2000/svg"
   xmlns:svg="http://www.w3.org/2000/svg">
  <sodipodi:namedview
     id="namedview84"
     pagecolor="#292b2e"
     bordercolor="#000000"
     borderopacity="1"
     inkscape:showpageshadow="2"
     inkscape:pageopacity="0.0"
     inkscape:pagecheckerboard="0"
     inkscape:deskcolor="#3a3d41"
     inkscape:zoom="1.5308333"
     inkscape:cx="371.36636"
     inkscape:cy="137.18019"
     inkscape:current-layer="svg84"
     showgrid="false">
    <inkscape:grid
       id="grid84"
       units="px"
       originx="0"
       originy="0"
       spacingx="1"
       spacingy="1"
       empcolor="#0099e5"
       empopacity="0.30196078"
       color="#0099e5"
       opacity="0.14901961"
       empspacing="5"
       dotted="false"
       gridanglex="30"
       gridanglez="30"
       visible="false" />
  </sodipodi:namedview>
  <defs
     id="defs4">
    <linearGradient
       id="linearGradient2"
       x1="401"
       x2="386.78"
       y1="93"
       y2="102.06"
       gradientUnits="userSpaceOnUse">
      <stop
         stop-color="#ffffff"
         offset="0"
         id="stop1" />
      <stop
         stop-color="#ffffff"
         stop-opacity="0"
         offset="1"
         id="stop2" />
    </linearGradient>
    <linearGradient
       id="linearGradient5"
       x1="415"
       x2="401"
       y1="93"
       y2="102.57"
       gradientUnits="userSpaceOnUse">
      <stop
         stop-color="#ffffff"
         offset="0"
         id="stop3" />
      <stop
         stop-color="#ffffff"
         stop-opacity="0"
         offset="1"
         id="stop4" />
    </linearGradient>
  </defs>
  <use
     id="title-1-active"
     transform="matrix(0.1875,0,0,1,386.24,-542.36)"
     width="100%"
     height="100%"
     xlink:href="#headerbar-bg" />
  <use
     id="title-2-active"
     transform="matrix(0.1875,0,0,1,396.24,-542.36)"
     width="100%"
     height="100%"
     xlink:href="#headerbar-bg" />
  <use
     id="title-3-active"
     transform="matrix(0.1875,0,0,1,406.24,-542.36)"
     width="100%"
     height="100%"
     xlink:href="#headerbar-bg" />
  <use
     id="title-4-active"
     transform="matrix(0.1875,0,0,1,416.24,-542.36)"
     width="100%"
     height="100%"
     xlink:href="#headerbar-bg" />
  <g
     id="title-1-inactive"
     transform="matrix(0.1875,0,0,1,438.24,-542.36)">
    <rect
       x="21"
       y="585.35999"
       width="32"
       height="34"
       fill="#2c2c2c"
       id="rect4"
       style="fill:#3a3d41;fill-opacity:1" />
    <rect
       x="21"
       y="585.35999"
       width="32"
       height="1"
       fill="#ffffff"
       opacity="0.08"
       id="rect5" />
  </g>
  <g
     id="title-2-inactive"
     transform="matrix(0.1875,0,0,1,448.24,-542.36)">
    <rect
       x="21"
       y="585.35999"
       width="32"
       height="34"
       fill="#2c2c2c"
       id="rect6"
       style="fill:#3a3d41;fill-opacity:1" />
    <rect
       x="21"
       y="585.35999"
       width="32"
       height="1"
       fill="#ffffff"
       opacity="0.08"
       id="rect7" />
  </g>
  <g
     id="title-3-inactive"
     transform="matrix(0.1875,0,0,1,458.24,-542.36)">
    <rect
       x="21"
       y="585.35999"
       width="32"
       height="34"
       fill="#2c2c2c"
       id="rect8"
       style="fill:#3a3d41;fill-opacity:1" />
    <rect
       x="21"
       y="585.35999"
       width="32"
       height="1"
       fill="#ffffff"
       opacity="0.08"
       id="rect9" />
  </g>
  <g
     id="title-4-inactive"
     transform="matrix(0.1875,0,0,1,468.24,-542.36)">
    <rect
       x="21"
       y="585.35999"
       width="32"
       height="34"
       fill="#2c2c2c"
       id="rect10"
       style="fill:#3a3d41;fill-opacity:1" />
    <rect
       x="21"
       y="585.35999"
       width="32"
       height="1"
       fill="#ffffff"
       opacity="0.08"
       id="rect11" />
  </g>
  <g
     id="close-prelight"
     transform="translate(5,-564.36)">
    <use
       transform="translate(40)"
       width="100%"
       height="100%"
       xlink:href="#headerbar-bg"
       id="use11" />
    <circle
       cx="79"
       cy="602.35999"
       r="11"
       fill="#ffffff"
       opacity=".15"
       id="circle11"
       style="opacity:0.75" />
    <path
       d="m 75.465,598.33 c -0.12775,0 -0.2555,0.0486 -0.35339,0.14649 -0.19578,0.19586 -0.19578,0.51116 0,0.70703 l 3.1816,3.1816 -3.1816,3.1816 c -0.19578,0.19586 -0.19578,0.51116 0,0.70703 0.19578,0.19586 0.51118,0.19586 0.70704,0 l 3.1816,-3.1816 3.1816,3.1816 c 0.19578,0.19586 0.51114,0.19586 0.70704,0 0.19578,-0.19586 0.19578,-0.51116 0,-0.70703 l -3.1816,-3.1816 3.1816,-3.1816 c 0.19578,-0.19586 0.19578,-0.51116 0,-0.70703 -0.19578,-0.19586 -0.51118,-0.19586 -0.70704,0 l -3.1816,3.1816 -3.1816,-3.1816 C 75.72076,598.37859 75.59301,598.33 75.46526,598.33 Z"
       fill="#ffffff"
       style="fill:#000000;paint-order:stroke fill markers"
       id="path11" />
  </g>
  <g
     id="maximize-prelight"
     transform="translate(5,-564.36)">
    <use
       transform="translate(40,41)"
       width="100%"
       height="100%"
       xlink:href="#headerbar-bg"
       id="use12" />
    <circle
       cx="79"
       cy="643.35999"
       r="11"
       fill="#ffffff"
       opacity=".15"
       id="circle12"
       style="opacity:0.75" />
    <path
       d="m 77,639.36 c -1.108,0 -2,0.892 -2,2 v 4 c 0,1.108 0.89201,2 2,2 h 4 c 1.108,0 2,-0.892 2,-2 v -4 c 0,-1.108 -0.89201,-2 -2,-2 z m 0,1 h 4 c 0.554,0 1,0.44602 1,1 v 4 c 0,0.55398 -0.44602,1 -1,1 h -4 c -0.55397,0 -0.99999,-0.44602 -0.99999,-1 v -4 c 0,-0.55398 0.44602,-1 0.99999,-1 z"
       fill="#ffffff"
       style="fill:#000000;paint-order:stroke fill markers"
       id="path12" />
  </g>
  <g
     id="hide-prelight"
     transform="translate(5,-564.36)">
    <use
       transform="translate(40,82)"
       width="100%"
       height="100%"
       xlink:href="#headerbar-bg"
       id="use13" />
    <circle
       cx="79"
       cy="684.35999"
       r="11"
       fill="#ffffff"
       opacity=".15"
       id="circle13"
       style="opacity:0.75" />
    <rect
       x="75"
       y="684.35999"
       width="8"
       height="1"
       rx="0.5"
       ry="0.5"
       fill="#ffffff"
       style="fill:#000000;paint-order:stroke fill markers"
       id="rect13" />
  </g>
  <g
     id="maximize-toggled-prelight"
     transform="translate(5,-564.36)">
    <use
       transform="translate(40,123)"
       width="100%"
       height="100%"
       xlink:href="#headerbar-bg"
       id="use14" />
    <circle
       cx="79"
       cy="725.35999"
       r="11"
       fill="#ffffff"
       opacity=".15"
       id="circle14"
       style="opacity:0.75" />
    <g
       transform="translate(69,717.36)"
       fill="#ffffff"
       id="g15">
      <path
         d="M 8,6 C 6.892,6 6,6.892 6,8 v 2 c 0,1.108 0.892,2 2,2 h 2 c 1.108,0 2,-0.892 2,-2 V 8 C 12,6.892 11.108,6 10,6 Z m 0,1 h 2 c 0.554,0 1,0.446 1,1 v 2 c 0,0.554 -0.446,1 -1,1 H 8 C 7.446,11 7,10.554 7,10 V 8 C 7,7.446 7.446,7 8,7 Z"
         style="fill:#000000;paint-order:stroke fill markers"
         id="path14" />
      <path
         d="M 10,4 C 8.892,4 8,4.892 8,6 H 9 C 9,5.446 9.446,5 10,5 h 2 c 0.554,0 1,0.446 1,1 v 2 c 0,0.554 -0.446,1 -1,1 v 1 c 1.108,0 2,-0.892 2,-2 V 6 C 14,4.892 13.108,4 12,4 Z"
         opacity="0.35"
         style="fill:#000000;paint-order:stroke fill markers"
         id="path15" />
    </g>
  </g>
  <g
     id="close-pressed"
     transform="translate(5,-564.36)">
    <use
       transform="translate(80)"
       width="100%"
       height="100%"
       xlink:href="#headerbar-bg"
       id="use15" />
    <circle
       cx="119"
       cy="602.35999"
       r="11"
       fill="#ffffff"
       opacity=".2"
       id="circle15"
       style="opacity:0.6" />
    <path
       d="m 115.46,598.33 c -0.12775,0 -0.2555,0.0486 -0.35339,0.14649 -0.19578,0.19586 -0.19578,0.51116 0,0.70703 l 3.1816,3.1816 -3.1816,3.1816 c -0.19578,0.19586 -0.19578,0.51116 0,0.70703 0.19578,0.19586 0.51118,0.19586 0.70704,0 l 3.1816,-3.1816 3.1816,3.1816 c 0.19578,0.19586 0.51114,0.19586 0.70704,0 0.19578,-0.19586 0.19578,-0.51116 0,-0.70703 l -3.1816,-3.1816 3.1816,-3.1816 c 0.19578,-0.19586 0.19578,-0.51116 0,-0.70703 -0.19578,-0.19586 -0.51117,-0.19586 -0.70704,0 l -3.1816,3.1816 -3.1816,-3.1816 c -0.0979,-0.0979 -0.22564,-0.14649 -0.35339,-0.14649 z"
       fill="#ffffff"
       style="fill:#000000;paint-order:stroke fill markers"
       id="path16" />
  </g>
  <g
     id="maximize-pressed"
     transform="translate(5,-564.36)">
    <use
       transform="translate(80,41)"
       width="100%"
       height="100%"
       xlink:href="#headerbar-bg"
       id="use16" />
    <circle
       cx="119"
       cy="643.35999"
       r="11"
       fill="#ffffff"
       opacity=".2"
       id="circle16"
       style="opacity:0.6" />
    <path
       d="m 117,639.36 c -1.108,0 -2,0.892 -2,2 v 4 c 0,1.108 0.89201,2 2,2 h 4 c 1.108,0 2,-0.892 2,-2 v -4 c 0,-1.108 -0.89201,-2 -2,-2 z m 0,1 h 4 c 0.554,0 1,0.44602 1,1 v 4 c 0,0.55398 -0.44602,1 -1,1 h -4 c -0.55397,0 -0.99999,-0.44602 -0.99999,-1 v -4 c 0,-0.55398 0.44603,-1 0.99999,-1 z"
       fill="#ffffff"
       stroke-linecap="round"
       stroke-linejoin="round"
       stroke-width="1.7778"
       style="fill:#000000;paint-order:stroke fill markers"
       id="path17" />
  </g>
  <g
     id="hide-pressed"
     transform="translate(5,-564.36)">
    <use
       transform="translate(80,82)"
       width="100%"
       height="100%"
       xlink:href="#headerbar-bg"
       id="use17" />
    <circle
       cx="119"
       cy="684.35999"
       r="11"
       fill="#ffffff"
       opacity=".2"
       id="circle17"
       style="opacity:0.6" />
    <rect
       x="115"
       y="684.35999"
       width="8"
       height="1"
       rx="0.5"
       ry="0.5"
       fill="#ffffff"
       style="fill:#000000;paint-order:stroke fill markers"
       id="rect17" />
  </g>
  <g
     id="maximize-toggled-pressed"
     transform="translate(5,-564.36)">
    <use
       transform="translate(80,123)"
       width="100%"
       height="100%"
       xlink:href="#headerbar-bg"
       id="use18" />
    <circle
       cx="119"
       cy="725.35999"
       r="11"
       fill="#ffffff"
       opacity=".2"
       id="circle18"
       style="opacity:0.6" />
    <g
       transform="translate(109,717.36)"
       fill="#ffffff"
       id="g19">
      <path
         d="M 8,6 C 6.892,6 6,6.892 6,8 v 2 c 0,1.108 0.892,2 2,2 h 2 c 1.108,0 2,-0.892 2,-2 V 8 C 12,6.892 11.108,6 10,6 Z m 0,1 h 2 c 0.554,0 1,0.446 1,1 v 2 c 0,0.554 -0.446,1 -1,1 H 8 C 7.446,11 7,10.554 7,10 V 8 C 7,7.446 7.446,7 8,7 Z"
         style="fill:#000000;paint-order:stroke fill markers"
         id="path18" />
      <path
         d="M 10,4 C 8.892,4 8,4.892 8,6 H 9 C 9,5.446 9.446,5 10,5 h 2 c 0.554,0 1,0.446 1,1 v 2 c 0,0.554 -0.446,1 -1,1 v 1 c 1.108,0 2,-0.892 2,-2 V 6 C 14,4.892 13.108,4 12,4 Z"
         opacity="0.35"
         style="fill:#000000;paint-order:stroke fill markers"
         id="path19" />
    </g>
  </g>
  <g
     id="stick-active"
     transform="translate(5,-564.36)">
    <use
       transform="translate(190,103)"
       width="100%"
       height="100%"
       xlink:href="#headerbar-bg"
       id="use19" />
    <path
       d="m 229,699.36 a 6,6 0 0 0 -6,6 6,6 0 0 0 6,6 6,6 0 0 0 6,-6 6,6 0 0 0 -6,-6 z m 0,1 a 5,5 0 0 1 5,5 5,5 0 0 1 -5,5 5,5 0 0 1 -5,-5 5,5 0 0 1 5,-5 z"
       fill="#ffffff"
       opacity="0.75"
       id="path20" />
  </g>
  <g
     id="shade-active"
     transform="translate(5,-564.36)">
    <use
       transform="translate(190,21)"
       width="100%"
       height="100%"
       xlink:href="#headerbar-bg"
       id="use20" />
    <path
       d="m 229,619.83 -6.3633,6.3633 0.70703,0.70703 5.6562,-5.6562 5.6562,5.6562 0.70703,-0.70703 -5.6562,-5.6562 z"
       fill="#ffffff"
       opacity="0.75"
       stroke-linecap="round"
       stroke-linejoin="round"
       stroke-miterlimit="2"
       stroke-width="2"
       id="path21" />
  </g>
  <g
     id="shade-toggled-active"
     transform="translate(5,-564.36)">
    <use
       transform="translate(190,62)"
       width="100%"
       height="100%"
       xlink:href="#headerbar-bg"
       id="use21" />
    <path
       d="m 229,667.9 -6.3633,-6.3633 0.70703,-0.70703 5.6562,5.6562 5.6562,-5.6562 0.70703,0.70703 -5.6562,5.6562 z"
       fill="#ffffff"
       opacity="0.75"
       stroke-linecap="round"
       stroke-linejoin="round"
       stroke-miterlimit="2"
       stroke-width="2"
       id="path22" />
  </g>
  <g
     id="stick-toggled-active"
     transform="translate(5,-564.36)">
    <use
       transform="translate(190,145)"
       width="100%"
       height="100%"
       xlink:href="#headerbar-bg"
       id="use22" />
    <path
       d="m 229,741.36 a 6,6 0 0 0 -6,6 6,6 0 0 0 6,6 6,6 0 0 0 6,-6 6,6 0 0 0 -6,-6 z m 0,1 a 5,5 0 0 1 5,5 5,5 0 0 1 -5,5 5,5 0 0 1 -5,-5 5,5 0 0 1 5,-5 z m 0,3 a 2,2 0 0 0 -2,2 2,2 0 0 0 2,2 2,2 0 0 0 2,-2 2,2 0 0 0 -2,-2 z"
       fill="#ffffff"
       opacity="0.75"
       id="path23" />
  </g>
  <g
     id="menu-active"
     transform="translate(5,-564.36)">
    <use
       transform="translate(190,-20)"
       width="100%"
       height="100%"
       xlink:href="#headerbar-bg"
       id="use23" />
    <path
       d="m 224,581.36 a 1,1 0 0 0 -1,1 1,1 0 0 0 1,1 1,1 0 0 0 1,-1 1,1 0 0 0 -1,-1 z m 5,0 a 1,1 0 0 0 -1,1 1,1 0 0 0 1,1 1,1 0 0 0 1,-1 1,1 0 0 0 -1,-1 z m 5,0 a 1,1 0 0 0 -1,1 1,1 0 0 0 1,1 1,1 0 0 0 1,-1 1,1 0 0 0 -1,-1 z"
       fill="#ffffff"
       opacity="0.75"
       id="path24" />
  </g>
  <g
     id="stick-prelight"
     transform="translate(5,-564.36)">
    <use
       transform="translate(230,103)"
       width="100%"
       height="100%"
       xlink:href="#headerbar-bg"
       id="use24" />
    <circle
       cx="269"
       cy="705.35999"
       r="11"
       fill="#ffffff"
       opacity=".15"
       stroke-linecap="round"
       stroke-linejoin="round"
       stroke-width="11"
       style="opacity:0.75;paint-order:stroke fill markers"
       id="circle24" />
    <path
       d="m 269,699.36 a 6,6 0 0 0 -6,6 6,6 0 0 0 6,6 6,6 0 0 0 6,-6 6,6 0 0 0 -6,-6 z m 0,1 a 5,5 0 0 1 5,5 5,5 0 0 1 -5,5 5,5 0 0 1 -5,-5 5,5 0 0 1 5,-5 z"
       fill="#ffffff"
       opacity="0.75"
       id="path25"
       style="fill:#000000" />
  </g>
  <g
     id="shade-prelight"
     transform="translate(5,-564.36)">
    <use
       transform="translate(230,21)"
       width="100%"
       height="100%"
       xlink:href="#headerbar-bg"
       id="use25" />
    <circle
       cx="269"
       cy="623.35999"
       r="11"
       fill="#ffffff"
       opacity=".15"
       stroke-linecap="round"
       stroke-linejoin="round"
       stroke-width="11"
       style="opacity:0.75;paint-order:stroke fill markers"
       id="circle25" />
    <path
       d="m 269,619.83 -6.3633,6.3633 0.70703,0.70703 5.6562,-5.6562 5.6562,5.6562 0.70703,-0.70703 -5.6562,-5.6562 z"
       fill="#ffffff"
       opacity="0.75"
       stroke-linecap="round"
       stroke-linejoin="round"
       stroke-miterlimit="2"
       stroke-width="2"
       id="path26"
       style="fill:#000000" />
  </g>
  <g
     id="shade-toggled-prelight"
     transform="translate(5,-564.36)">
    <use
       transform="translate(230,62)"
       width="100%"
       height="100%"
       xlink:href="#headerbar-bg"
       id="use26" />
    <circle
       cx="269"
       cy="664.35999"
       r="11"
       fill="#ffffff"
       opacity=".15"
       stroke-linecap="round"
       stroke-linejoin="round"
       stroke-width="11"
       style="opacity:0.75;paint-order:stroke fill markers"
       id="circle26" />
    <path
       d="m 269,667.9 -6.3633,-6.3633 0.70703,-0.70703 5.6562,5.6562 5.6562,-5.6562 0.70703,0.70703 -5.6562,5.6562 z"
       fill="#ffffff"
       opacity="0.75"
       stroke-linecap="round"
       stroke-linejoin="round"
       stroke-miterlimit="2"
       stroke-width="2"
       id="path27"
       style="fill:#000000" />
  </g>
  <g
     id="stick-toggled-prelight"
     transform="translate(5,-564.36)">
    <use
       transform="translate(230,145)"
       width="100%"
       height="100%"
       xlink:href="#headerbar-bg"
       id="use27" />
    <circle
       cx="269"
       cy="747.35999"
       r="11"
       fill="#ffffff"
       opacity=".15"
       stroke-linecap="round"
       stroke-linejoin="round"
       stroke-width="11"
       style="opacity:0.75;paint-order:stroke fill markers"
       id="circle27" />
    <path
       d="m 269,741.36 a 6,6 0 0 0 -6,6 6,6 0 0 0 6,6 6,6 0 0 0 6,-6 6,6 0 0 0 -6,-6 z m 0,1 a 5,5 0 0 1 5,5 5,5 0 0 1 -5,5 5,5 0 0 1 -5,-5 5,5 0 0 1 5,-5 z m 0,3 a 2,2 0 0 0 -2,2 2,2 0 0 0 2,2 2,2 0 0 0 2,-2 2,2 0 0 0 -2,-2 z"
       fill="#ffffff"
       opacity="0.75"
       id="path28"
       style="fill:#000000" />
  </g>
  <g
     id="menu-prelight"
     transform="translate(5,-564.36)">
    <use
       transform="translate(230,-20)"
       width="100%"
       height="100%"
       xlink:href="#headerbar-bg"
       id="use28" />
    <circle
       cx="269"
       cy="582.35999"
       r="11"
       fill="#ffffff"
       opacity=".15"
       stroke-linecap="round"
       stroke-linejoin="round"
       stroke-width="11"
       style="opacity:0.75;paint-order:stroke fill markers"
       id="circle28" />
    <path
       d="m 264,581.36 a 1,1 0 0 0 -1,1 1,1 0 0 0 1,1 1,1 0 0 0 1,-1 1,1 0 0 0 -1,-1 z m 5,0 a 1,1 0 0 0 -1,1 1,1 0 0 0 1,1 1,1 0 0 0 1,-1 1,1 0 0 0 -1,-1 z m 5,0 a 1,1 0 0 0 -1,1 1,1 0 0 0 1,1 1,1 0 0 0 1,-1 1,1 0 0 0 -1,-1 z"
       fill="#ffffff"
       opacity="0.75"
       id="path29"
       style="fill:#000000" />
  </g>
  <g
     id="stick-pressed"
     transform="translate(5,-564.36)">
    <use
       transform="translate(270,103)"
       width="100%"
       height="100%"
       xlink:href="#headerbar-bg"
       id="use29" />
    <circle
       cx="309"
       cy="705.35999"
       r="11"
       fill="#ffffff"
       opacity=".25"
       stroke-linecap="round"
       stroke-linejoin="round"
       stroke-width="11"
       style="opacity:0.6;paint-order:stroke fill markers"
       id="circle29" />
    <path
       d="m 309,699.36 a 6,6 0 0 0 -6,6 6,6 0 0 0 6,6 6,6 0 0 0 6,-6 6,6 0 0 0 -6,-6 z m 0,1 a 5,5 0 0 1 5,5 5,5 0 0 1 -5,5 5,5 0 0 1 -5,-5 5,5 0 0 1 5,-5 z"
       fill="#ffffff"
       opacity="0.75"
       id="path30"
       style="fill:#000000" />
  </g>
  <g
     id="shade-pressed"
     transform="translate(5,-564.36)">
    <use
       transform="translate(270,21)"
       width="100%"
       height="100%"
       xlink:href="#headerbar-bg"
       id="use30" />
    <circle
       cx="309"
       cy="623.35999"
       r="11"
       fill="#ffffff"
       opacity=".25"
       stroke-linecap="round"
       stroke-linejoin="round"
       stroke-width="11"
       style="opacity:0.6;paint-order:stroke fill markers"
       id="circle30" />
    <path
       d="m 309,619.83 -6.3633,6.3633 0.70703,0.70703 5.6562,-5.6562 5.6562,5.6562 0.70703,-0.70703 -5.6562,-5.6562 z"
       fill="#ffffff"
       opacity="0.75"
       stroke-linecap="round"
       stroke-linejoin="round"
       stroke-miterlimit="2"
       stroke-width="2"
       id="path31"
       style="fill:#000000" />
  </g>
  <g
     id="shade-toggled-pressed"
     transform="translate(5,-564.36)">
    <use
       transform="translate(270,62)"
       width="100%"
       height="100%"
       xlink:href="#headerbar-bg"
       id="use31" />
    <circle
       cx="309"
       cy="664.35999"
       r="11"
       fill="#ffffff"
       opacity=".25"
       stroke-linecap="round"
       stroke-linejoin="round"
       stroke-width="11"
       style="opacity:0.6;paint-order:stroke fill markers"
       id="circle31" />
    <path
       d="m 309,667.9 -6.3633,-6.3633 0.70703,-0.70703 5.6562,5.6562 5.6562,-5.6562 0.70703,0.70703 -5.6562,5.6562 z"
       fill="#ffffff"
       opacity="0.75"
       stroke-linecap="round"
       stroke-linejoin="round"
       stroke-miterlimit="2"
       stroke-width="2"
       id="path32"
       style="fill:#000000" />
  </g>
  <g
     id="stick-toggled-pressed"
     transform="translate(5,-564.36)">
    <use
       transform="translate(270,145)"
       width="100%"
       height="100%"
       xlink:href="#headerbar-bg"
       id="use32" />
    <circle
       cx="309"
       cy="747.35999"
       r="11"
       fill="#ffffff"
       opacity=".25"
       stroke-linecap="round"
       stroke-linejoin="round"
       stroke-width="11"
       style="opacity:0.6;paint-order:stroke fill markers"
       id="circle32" />
    <path
       d="m 309,741.36 a 6,6 0 0 0 -6,6 6,6 0 0 0 6,6 6,6 0 0 0 6,-6 6,6 0 0 0 -6,-6 z m 0,1 a 5,5 0 0 1 5,5 5,5 0 0 1 -5,5 5,5 0 0 1 -5,-5 5,5 0 0 1 5,-5 z m 0,3 a 2,2 0 0 0 -2,2 2,2 0 0 0 2,2 2,2 0 0 0 2,-2 2,2 0 0 0 -2,-2 z"
       fill="#ffffff"
       opacity="0.75"
       id="path33"
       style="fill:#000000" />
  </g>
  <g
     id="menu-pressed"
     transform="translate(5,-564.36)">
    <use
       transform="translate(270,-20)"
       width="100%"
       height="100%"
       xlink:href="#headerbar-bg"
       id="use33" />
    <circle
       cx="309"
       cy="582.35999"
       r="11"
       fill="#ffffff"
       opacity=".25"
       stroke-linecap="round"
       stroke-linejoin="round"
       stroke-width="11"
       style="opacity:0.6;paint-order:stroke fill markers"
       id="circle33" />
    <path
       d="m 304,581.36 a 1,1 0 0 0 -1,1 1,1 0 0 0 1,1 1,1 0 0 0 1,-1 1,1 0 0 0 -1,-1 z m 5,0 a 1,1 0 0 0 -1,1 1,1 0 0 0 1,1 1,1 0 0 0 1,-1 1,1 0 0 0 -1,-1 z m 5,0 a 1,1 0 0 0 -1,1 1,1 0 0 0 1,1 1,1 0 0 0 1,-1 1,1 0 0 0 -1,-1 z"
       fill="#ffffff"
       opacity="0.75"
       id="path34"
       style="fill:#000000" />
  </g>
  <g
     id="stick-inactive"
     transform="translate(5,-564.36)">
    <g
       transform="translate(310,103)"
       id="g35">
      <rect
         x="21"
         y="585.35999"
         width="36"
         height="34"
         fill="#2c2c2c"
         id="rect34"
         style="fill:#3a3d41;fill-opacity:1" />
      <rect
         x="21"
         y="585.35999"
         width="36"
         height="1"
         fill="#ffffff"
         opacity="0.08"
         id="rect35" />
    </g>
    <path
       d="m 349,699.36 a 6,6 0 0 0 -6,6 6,6 0 0 0 6,6 6,6 0 0 0 6,-6 6,6 0 0 0 -6,-6 z m 0,1 a 5,5 0 0 1 5,5 5,5 0 0 1 -5,5 5,5 0 0 1 -5,-5 5,5 0 0 1 5,-5 z"
       fill="#ffffff"
       opacity="0.3"
       id="path35" />
  </g>
  <g
     id="shade-inactive"
     transform="translate(5,-564.36)">
    <g
       transform="translate(310,21)"
       id="g37">
      <rect
         x="21"
         y="585.35999"
         width="36"
         height="34"
         fill="#2c2c2c"
         id="rect36"
         style="fill:#3a3d41;fill-opacity:1" />
      <rect
         x="21"
         y="585.35999"
         width="36"
         height="1"
         fill="#ffffff"
         opacity="0.08"
         id="rect37" />
    </g>
    <path
       d="m 349,619.83 -6.3633,6.3633 0.70703,0.70703 5.6562,-5.6562 5.6562,5.6562 0.70703,-0.70703 -5.6562,-5.6562 z"
       fill="#ffffff"
       opacity="0.3"
       stroke-linecap="round"
       stroke-linejoin="round"
       stroke-miterlimit="2"
       stroke-width="2"
       id="path37" />
  </g>
  <g
     id="shade-toggled-inactive"
     transform="translate(5,-564.36)">
    <g
       transform="translate(310,62)"
       id="g39">
      <rect
         x="21"
         y="585.35999"
         width="36"
         height="34"
         fill="#2c2c2c"
         id="rect38"
         style="fill:#3a3d41;fill-opacity:1" />
      <rect
         x="21"
         y="585.35999"
         width="36"
         height="1"
         fill="#ffffff"
         opacity="0.08"
         id="rect39" />
    </g>
    <path
       d="m 349,667.9 -6.3633,-6.3633 0.70703,-0.70703 5.6562,5.6562 5.6562,-5.6562 0.70703,0.70703 -5.6562,5.6562 z"
       fill="#ffffff"
       opacity="0.3"
       stroke-linecap="round"
       stroke-linejoin="round"
       stroke-miterlimit="2"
       stroke-width="2"
       id="path39" />
  </g>
  <g
     id="stick-toggled-inactive"
     transform="translate(5,-564.36)">
    <g
       transform="translate(310,145)"
       id="g41">
      <rect
         x="21"
         y="585.35999"
         width="36"
         height="34"
         fill="#2c2c2c"
         id="rect40"
         style="fill:#3a3d41;fill-opacity:1" />
      <rect
         x="21"
         y="585.35999"
         width="36"
         height="1"
         fill="#ffffff"
         opacity="0.08"
         id="rect41" />
    </g>
    <path
       d="m 349,741.36 a 6,6 0 0 0 -6,6 6,6 0 0 0 6,6 6,6 0 0 0 6,-6 6,6 0 0 0 -6,-6 z m 0,1 a 5,5 0 0 1 5,5 5,5 0 0 1 -5,5 5,5 0 0 1 -5,-5 5,5 0 0 1 5,-5 z m 0,3 a 2,2 0 0 0 -2,2 2,2 0 0 0 2,2 2,2 0 0 0 2,-2 2,2 0 0 0 -2,-2 z"
       fill="#ffffff"
       opacity="0.3"
       id="path41" />
  </g>
  <g
     id="menu-inactive"
     transform="translate(5,-564.36)">
    <g
       transform="translate(310,-20)"
       id="g43">
      <rect
         x="21"
         y="585.35999"
         width="36"
         height="34"
         fill="#2c2c2c"
         id="rect42"
         style="fill:#3a3d41;fill-opacity:1" />
      <rect
         x="21"
         y="585.35999"
         width="36"
         height="1"
         fill="#ffffff"
         opacity="0.08"
         id="rect43" />
    </g>
    <path
       d="m 344,581.36 a 1,1 0 0 0 -1,1 1,1 0 0 0 1,1 1,1 0 0 0 1,-1 1,1 0 0 0 -1,-1 z m 5,0 a 1,1 0 0 0 -1,1 1,1 0 0 0 1,1 1,1 0 0 0 1,-1 1,1 0 0 0 -1,-1 z m 5,0 a 1,1 0 0 0 -1,1 1,1 0 0 0 1,1 1,1 0 0 0 1,-1 1,1 0 0 0 -1,-1 z"
       fill="#ffffff"
       opacity="0.3"
       id="path43" />
  </g>
  <use
     id="title-5-active"
     transform="matrix(0.1875,0,0,1,426.24,-542.36)"
     width="100%"
     height="100%"
     xlink:href="#headerbar-bg" />
  <g
     id="title-5-inactive"
     transform="matrix(0.1875,0,0,1,478.24,-542.36)">
    <rect
       x="21"
       y="585.35999"
       width="32"
       height="34"
       fill="#2c2c2c"
       id="rect44"
       style="fill:#3a3d41;fill-opacity:1" />
    <rect
       x="21"
       y="585.35999"
       width="32"
       height="1"
       fill="#ffffff"
       opacity="0.08"
       id="rect45" />
  </g>
  <g
     id="top-left-inactive"
     transform="translate(415,-631.36)">
    <g
       transform="translate(-3)"
       id="g45">
      <path
         transform="translate(-412,631.36)"
         d="m 410,93 v 1 h -2 v 1 h -1 v 1 h -1 v 1 h -1 v 1 h -1 v 2 h -1 v 27 h 12 V 93 Z"
         fill="#2c2c2c"
         stroke-linecap="round"
         stroke-linejoin="round"
         stroke-width="7.3694"
         style="fill:#3a3d41;fill-opacity:1;paint-order:stroke fill markers"
         id="path45" />
    </g>
    <path
       transform="translate(-415,631.36)"
       d="m 410,93 v 1 h 5 v -1 z m 0,1 h -2 v 1 h 2 z m -2,1 h -1 v 1 h 1 z m -1,1 h -1 v 1 h 1 z m -1,1 h -1 v 1 h 1 z m -1,1 h -1 v 2 h 1 z"
       fill="url(#linearGradient5)"
       opacity="0.1"
       stroke-linecap="round"
       stroke-linejoin="round"
       stroke-width="17.888"
       style="fill:url(#linearGradient5);paint-order:stroke fill markers"
       id="path46" />
  </g>
  <use
     id="top-right-active"
     transform="matrix(-1,0,0,1,818,0)"
     width="100%"
     height="100%"
     xlink:href="#top-left-active"
     x="0"
     y="0" />
  <g
     id="left-active"
     transform="translate(402,-629.36)">
    <rect
       transform="scale(-1,1)"
       x="-48"
       y="734.35999"
       width="2"
       height="16"
       fill="#242424"
       id="rect46"
       style="fill:#3a3d41;fill-opacity:1" />
  </g>
  <g
     id="left-inactive"
     transform="translate(407,-629.36)">
    <rect
       transform="scale(-1,1)"
       x="-48"
       y="734.35999"
       width="2"
       height="16"
       fill="#2c2c2c"
       id="rect49"
       style="fill:#3a3d41;fill-opacity:1" />
  </g>
  <g
     id="right-inactive"
     transform="matrix(-1,0,0,1,511,-629.36)">
    <rect
       transform="scale(-1,1)"
       x="-48"
       y="734.35999"
       width="2"
       height="16"
       fill="#2c2c2c"
       id="rect51"
       style="fill:#3a3d41;fill-opacity:1" />
  </g>
  <g
     id="right-active"
     transform="matrix(-1,0,0,1,506,-629.36)">
    <rect
       transform="scale(-1,1)"
       x="-48"
       y="734.35999"
       width="2"
       height="16"
       fill="#242424"
       id="rect53"
       style="fill:#3a3d41;fill-opacity:1" />
  </g>
  <g
     id="bottom-left-active"
     transform="translate(379,-631.36)">
    <path
       d="m 98,730.36 h -2 v 9.0001 h 1 v 1 l 9,-1.2e-4 v -2 l -8,1.2e-4 z"
       fill="#242424"
       id="path55"
       style="fill:#3a3d41;fill-opacity:1" />
  </g>
  <g
     id="bottom-left-inactive"
     transform="translate(379,-619.36)">
    <path
       d="m 98,730.36 h -2 v 9.0001 h 1 v 1 l 9,-1.2e-4 v -2 l -8,1.2e-4 z"
       fill="#2c2c2c"
       id="path58"
       style="fill:#3a3d41;fill-opacity:1" />
  </g>
  <g
     id="bottom-right-inactive"
     transform="matrix(-1,0,0,1,611,-619.36)">
    <path
       d="m 98,730.36 h -2 v 9.0001 h 1 v 1 l 9,-1.2e-4 v -2 l -8,1.2e-4 z"
       fill="#2c2c2c"
       id="path60"
       style="fill:#3a3d41;fill-opacity:1" />
  </g>
  <g
     id="bottom-right-active"
     transform="matrix(-1,0,0,1,611,-631.36)">
    <path
       d="m 98,730.36 h -2 v 9.0001 h 1 v 1 l 9,-1.2e-4 v -2 l -8,1.2e-4 z"
       fill="#242424"
       id="path62"
       style="fill:#3a3d41;fill-opacity:1" />
  </g>
  <g
     id="bottom-active"
     transform="matrix(0,-1,-1,0,1237.4,155)">
    <rect
       transform="scale(-1,1)"
       x="-48"
       y="734.35999"
       width="2"
       height="16"
       fill="#242424"
       id="rect64"
       style="fill:#3a3d41;fill-opacity:1" />
  </g>
  <g
     id="bottom-inactive"
     transform="matrix(0,-1,-1,0,1237.4,167)">
    <rect
       transform="scale(-1,1)"
       x="-48"
       y="734.35999"
       width="2"
       height="16"
       fill="#2c2c2c"
       id="rect67"
       style="fill:#3a3d41;fill-opacity:1" />
  </g>
  <g
     id="top-left-active"
     transform="translate(401,-631.36)">
    <g
       transform="translate(-3)"
       id="g68">
      <path
         transform="translate(-398,631.36)"
         d="m 396,93 v 1 h -2 v 1 h -1 v 1 h -1 v 1 h -1 v 1 h -1 v 2 h -1 v 27 h 12 V 93 Z"
         fill="#242424"
         stroke-linecap="round"
         stroke-linejoin="round"
         stroke-width="7.3694"
         style="fill:#3a3d41;fill-opacity:1;paint-order:stroke fill markers"
         id="path68" />
    </g>
    <path
       transform="translate(-401,631.36)"
       d="m 396,93 v 1 h 5 v -1 z m 0,1 h -2 v 1 h 2 z m -2,1 h -1 v 1 h 1 z m -1,1 h -1 v 1 h 1 z m -1,1 h -1 v 1 h 1 z m -1,1 h -1 v 2 h 1 z"
       fill="url(#linearGradient2)"
       opacity="0.1"
       stroke-linecap="round"
       stroke-linejoin="round"
       stroke-width="17.888"
       style="fill:url(#linearGradient2);paint-order:stroke fill markers"
       id="path69" />
  </g>
  <g
     id="close-active"
     fill="#ffffff"
     transform="translate(5,-564.36)">
    <g
       id="headerbar-bg">
      <rect
         x="21"
         y="585.35999"
         width="36"
         height="34"
         fill="#242424"
         id="rect69"
         style="fill:#3a3d41;fill-opacity:1" />
      <rect
         x="21"
         y="585.35999"
         width="36"
         height="1"
         fill="#ffffff"
         opacity="0.1"
         id="rect70" />
    </g>
    <circle
       cx="39"
       cy="602.35999"
       r="11"
       opacity="0.1"
       id="circle70" />
    <path
       d="m 35.465,598.33 c -0.12775,0 -0.2555,0.0486 -0.35339,0.14649 -0.19578,0.19586 -0.19578,0.51116 0,0.70703 l 3.1816,3.1816 -3.1816,3.1816 c -0.19578,0.19586 -0.19578,0.51116 0,0.70703 0.19578,0.19586 0.51118,0.19586 0.70704,0 l 3.1816,-3.1816 3.1816,3.1816 c 0.19578,0.19586 0.51114,0.19586 0.70704,0 0.19578,-0.19586 0.19578,-0.51116 0,-0.70703 l -3.1816,-3.1816 3.1816,-3.1816 c 0.19578,-0.19586 0.19578,-0.51116 0,-0.70703 -0.19578,-0.19586 -0.51118,-0.19586 -0.70704,0 l -3.1816,3.1816 -3.1816,-3.1816 C 35.72076,598.37859 35.59301,598.33 35.46526,598.33 Z"
       opacity="0.7"
       style="paint-order:stroke fill markers"
       id="path70" />
  </g>
  <g
     id="maximize-active"
     transform="translate(5,-564.36)">
    <use
       transform="translate(0,41)"
       width="100%"
       height="100%"
       xlink:href="#headerbar-bg"
       id="use70" />
    <circle
       cx="39"
       cy="643.35999"
       r="11"
       fill="#ffffff"
       opacity="0.1"
       id="circle71" />
    <path
       d="m 37,639.36 c -1.108,0 -2,0.892 -2,2 v 4 c 0,1.108 0.89201,2 2,2 h 4 c 1.108,0 2,-0.892 2,-2 v -4 c 0,-1.108 -0.89201,-2 -2,-2 z m 0,1 h 4 c 0.554,0 1,0.44602 1,1 v 4 c 0,0.55398 -0.44602,1 -1,1 h -4 c -0.55397,0 -0.99999,-0.44602 -0.99999,-1 v -4 c 0,-0.55398 0.44602,-1 0.99999,-1 z"
       fill="#ffffff"
       opacity="0.7"
       style="paint-order:stroke fill markers"
       id="path71" />
  </g>
  <g
     id="hide-active"
     transform="translate(5,-564.36)">
    <use
       transform="translate(0,82)"
       width="100%"
       height="100%"
       xlink:href="#headerbar-bg"
       id="use71" />
    <circle
       cx="39"
       cy="684.41998"
       r="11"
       fill="#ffffff"
       opacity="0.1"
       id="circle72" />
    <rect
       x="35"
       y="684.35999"
       width="8"
       height="1"
       rx="0.5"
       ry="0.5"
       fill="#ffffff"
       opacity="0.7"
       style="paint-order:stroke fill markers"
       id="rect72" />
  </g>
  <g
     id="maximize-toggled-active"
     transform="translate(5,-564.36)">
    <use
       transform="translate(0,123)"
       width="100%"
       height="100%"
       xlink:href="#headerbar-bg"
       id="use72" />
    <circle
       cx="39"
       cy="725.35999"
       r="11"
       fill="#ffffff"
       opacity="0.1"
       id="circle73" />
    <g
       transform="translate(63.25)"
       fill="#ffffff"
       opacity="0.7"
       id="g74">
      <path
         d="m -26.25,723.36 c -1.108,0 -2,0.892 -2,2 v 2 c 0,1.108 0.892,2 2,2 h 2 c 1.108,0 2,-0.892 2,-2 v -2 c 0,-1.108 -0.892,-2 -2,-2 z m 0,1 h 2 c 0.554,0 1,0.446 1,1 v 2 c 0,0.554 -0.446,1 -1,1 h -2 c -0.554,0 -1,-0.446 -1,-1 v -2 c 0,-0.554 0.446,-1 1,-1 z"
         opacity="1"
         style="paint-order:stroke fill markers"
         id="path73" />
      <path
         d="m -24.25,721.36 c -1.108,0 -2,0.892 -2,2 h 1 c 0,-0.554 0.446,-1 1,-1 h 2 c 0.554,0 1,0.446 1,1 v 2 c 0,0.554 -0.446,1 -1,1 v 1 c 1.108,0 2,-0.892 2,-2 v -2 c 0,-1.108 -0.892,-2 -2,-2 z"
         opacity="0.35"
         style="paint-order:stroke fill markers"
         id="path74" />
    </g>
  </g>
  <g
     id="close-inactive"
     transform="translate(44,-564.36)">
    <g
       transform="translate(80)"
       id="g75">
      <rect
         x="21"
         y="585.35999"
         width="36"
         height="34"
         fill="#2c2c2c"
         id="rect74"
         style="fill:#3a3d41;fill-opacity:1" />
      <rect
         x="21"
         y="585.35999"
         width="36"
         height="1"
         fill="#ffffff"
         opacity="0.08"
         id="rect75" />
    </g>
    <circle
       cx="119"
       cy="602.35999"
       r="11"
       fill="#ffffff"
       opacity="0.05"
       id="circle75" />
    <path
       d="m 115.46,598.33 c -0.12775,0 -0.2555,0.0486 -0.35339,0.14649 -0.19578,0.19586 -0.19578,0.51116 0,0.70703 l 3.1816,3.1816 -3.1816,3.1816 c -0.19578,0.19586 -0.19578,0.51116 0,0.70703 0.19578,0.19586 0.51118,0.19586 0.70704,0 l 3.1816,-3.1816 3.1816,3.1816 c 0.19578,0.19586 0.51114,0.19586 0.70704,0 0.19578,-0.19586 0.19578,-0.51116 0,-0.70703 l -3.1816,-3.1816 3.1816,-3.1816 c 0.19578,-0.19586 0.19578,-0.51116 0,-0.70703 -0.19578,-0.19586 -0.51117,-0.19586 -0.70704,0 l -3.1816,3.1816 -3.1816,-3.1816 c -0.0979,-0.0979 -0.22564,-0.14649 -0.35339,-0.14649 z"
       fill="#ffffff"
       opacity="0.3"
       style="paint-order:stroke fill markers"
       id="path75" />
  </g>
  <g
     id="maximize-inactive"
     transform="translate(44,-564.36)">
    <g
       transform="translate(80,41)"
       id="g77">
      <rect
         x="21"
         y="585.35999"
         width="36"
         height="34"
         fill="#2c2c2c"
         id="rect76"
         style="fill:#3a3d41;fill-opacity:1" />
      <rect
         x="21"
         y="585.35999"
         width="36"
         height="1"
         fill="#ffffff"
         opacity="0.08"
         id="rect77" />
    </g>
    <circle
       cx="119"
       cy="643.35999"
       r="11"
       fill="#ffffff"
       opacity="0.05"
       id="circle77" />
    <path
       d="m 117,639.36 c -1.108,0 -2,0.892 -2,2 v 4 c 0,1.108 0.89201,2 2,2 h 4 c 1.108,0 2,-0.892 2,-2 v -4 c 0,-1.108 -0.89201,-2 -2,-2 z m 0,1 h 4 c 0.554,0 1,0.44602 1,1 v 4 c 0,0.55398 -0.44602,1 -1,1 h -4 c -0.55397,0 -0.99999,-0.44602 -0.99999,-1 v -4 c 0,-0.55398 0.44603,-1 0.99999,-1 z"
       fill="#ffffff"
       opacity="0.3"
       stroke-linecap="round"
       stroke-linejoin="round"
       stroke-width="1.7778"
       style="paint-order:stroke fill markers"
       id="path77" />
  </g>
  <g
     id="hide-inactive"
     transform="translate(44,-564.36)">
    <g
       transform="translate(80,82)"
       id="g79">
      <rect
         x="21"
         y="585.35999"
         width="36"
         height="34"
         fill="#2c2c2c"
         id="rect78"
         style="fill:#3a3d41;fill-opacity:1" />
      <rect
         x="21"
         y="585.35999"
         width="36"
         height="1"
         fill="#ffffff"
         opacity="0.08"
         id="rect79" />
    </g>
    <circle
       cx="119"
       cy="684.35999"
       r="11"
       fill="#ffffff"
       opacity="0.05"
       id="circle79" />
    <rect
       x="115"
       y="684.35999"
       width="8"
       height="1"
       rx="0.5"
       ry="0.5"
       fill="#ffffff"
       opacity="0.3"
       style="paint-order:stroke fill markers"
       id="rect80" />
  </g>
  <g
     id="maximize-toggled-inactive"
     transform="translate(44,-564.36)">
    <g
       transform="translate(80,123)"
       id="g82">
      <rect
         x="21"
         y="585.35999"
         width="36"
         height="34"
         fill="#2c2c2c"
         id="rect81"
         style="fill:#3a3d41;fill-opacity:1" />
      <rect
         x="21"
         y="585.35999"
         width="36"
         height="1"
         fill="#ffffff"
         opacity="0.08"
         id="rect82" />
    </g>
    <circle
       cx="119"
       cy="725.35999"
       r="11"
       fill="#ffffff"
       opacity="0.05"
       id="circle82" />
    <g
       transform="translate(109,717.36)"
       fill="#ffffff"
       opacity="0.3"
       id="g83">
      <path
         d="M 8,6 C 6.892,6 6,6.892 6,8 v 2 c 0,1.108 0.892,2 2,2 h 2 c 1.108,0 2,-0.892 2,-2 V 8 C 12,6.892 11.108,6 10,6 Z m 0,1 h 2 c 0.554,0 1,0.446 1,1 v 2 c 0,0.554 -0.446,1 -1,1 H 8 C 7.446,11 7,10.554 7,10 V 8 C 7,7.446 7.446,7 8,7 Z"
         opacity="1"
         style="paint-order:stroke fill markers"
         id="path82" />
      <path
         d="M 10,4 C 8.892,4 8,4.892 8,6 H 9 C 9,5.446 9.446,5 10,5 h 2 c 0.554,0 1,0.446 1,1 v 2 c 0,0.554 -0.446,1 -1,1 v 1 c 1.108,0 2,-0.892 2,-2 V 6 C 14,4.892 13.108,4 12,4 Z"
         opacity="0.35"
         style="paint-order:stroke fill markers"
         id="path83" />
    </g>
  </g>
  <use
     id="top-right-inactive"
     transform="matrix(-1,0,0,1,846,0)"
     xlink:href="#top-left-inactive"
     x="0"
     y="0" />
</svg>
